<svg width="210" height="241" viewBox="0 0 210 241" fill="none" xmlns="http://www.w3.org/2000/svg">
<path fill-rule="evenodd" clip-rule="evenodd" d="M44.8145 23.3333C44.8145 20.4133 74.9211 0 104.814 0C134.708 0 164.814 20.42 164.814 23.3333C164.814 33.7333 163.708 39.8933 162.774 43.2467C162.154 45.4467 160.094 46.6667 157.808 46.6667H51.8211C49.5345 46.6667 47.4745 45.4467 46.8545 43.2467C45.9211 39.8933 44.8145 33.7333 44.8145 23.3333ZM94.8145 20C93.0463 20 91.3506 20.7024 90.1004 21.9526C88.8502 23.2029 88.1478 24.8986 88.1478 26.6667C88.1478 28.4348 88.8502 30.1305 90.1004 31.3807C91.3506 32.631 93.0463 33.3333 94.8145 33.3333H114.814C116.583 33.3333 118.278 32.631 119.529 31.3807C120.779 30.1305 121.481 28.4348 121.481 26.6667C121.481 24.8986 120.779 23.2029 119.529 21.9526C118.278 20.7024 116.583 20 114.814 20H94.8145Z" fill="white"/>
<path fill-rule="evenodd" clip-rule="evenodd" d="M51.7349 88.12C29.535 81.2533 35.1349 68.9867 43.6016 60H167.882C174.655 68.6533 178.288 80.3267 157.815 87.3133C158.652 94.7401 157.918 102.26 155.662 109.385C153.406 116.51 149.677 123.082 144.718 128.673C139.759 134.265 133.68 138.751 126.876 141.843C120.071 144.934 112.693 146.56 105.219 146.617C97.7456 146.673 90.3436 145.158 83.4931 142.17C76.6427 139.182 70.4968 134.787 65.4539 129.271C60.4111 123.755 56.5838 117.24 54.2205 110.15C51.8571 103.06 51.0103 95.5519 51.7349 88.1133V88.12ZM103.002 93.3333C120.615 93.3333 134.268 92.4 144.735 90.7733C145.079 96.2088 144.309 101.657 142.473 106.785C140.637 111.912 137.774 116.611 134.058 120.592C130.341 124.574 125.851 127.755 120.863 129.94C115.874 132.125 110.491 133.268 105.045 133.3C99.599 133.331 94.2037 132.25 89.1901 130.122C84.1765 127.995 79.6501 124.866 75.8885 120.927C72.1268 116.989 69.2091 112.324 67.3141 107.218C65.4191 102.112 64.5868 96.6724 64.8683 91.2333C74.6216 92.58 87.1216 93.3333 103.002 93.3333Z" fill="white"/>
<path fill-rule="evenodd" clip-rule="evenodd" d="M160.928 190.667C154.898 181.259 146.598 173.519 136.792 168.16C126.986 162.801 115.989 159.995 104.815 160C93.6353 159.993 82.634 162.799 72.8242 168.161C63.0145 173.522 54.7119 181.267 48.6814 190.68C46.4432 187.233 43.0059 184.739 39.0347 183.68L26.1547 180.233C21.8856 179.089 17.3367 179.687 13.5086 181.896C9.68041 184.105 6.88651 187.744 5.74136 192.013L0.56803 211.333C0.00144283 213.448 -0.143121 215.653 0.142595 217.823C0.428311 219.993 1.13871 222.086 2.23323 223.981C3.32774 225.877 4.78493 227.538 6.52158 228.871C8.25824 230.203 10.2403 231.18 12.3547 231.747L25.228 235.2C27.3934 235.783 29.6544 235.922 31.8749 235.608C34.0953 235.294 36.2292 234.534 38.148 233.373C38.1533 235.141 38.8608 236.835 40.1148 238.082C41.3688 239.328 43.0666 240.025 44.8347 240.02C46.6028 240.015 48.2964 239.307 49.5429 238.053C50.7894 236.799 51.4867 235.101 51.4814 233.333V226.667C51.4814 224.127 51.6614 221.627 52.0014 219.18L86.6947 228.48C88.3051 231.927 90.8653 234.843 94.0748 236.886C97.2844 238.929 101.01 240.014 104.815 240.014C108.619 240.014 112.345 238.929 115.555 236.886C118.764 234.843 121.324 231.927 122.935 228.48L157.628 219.18C157.968 221.627 158.148 224.127 158.148 226.667V233.333C158.139 235.101 158.833 236.801 160.077 238.057C161.321 239.314 163.013 240.025 164.781 240.033C166.549 240.042 168.249 239.348 169.505 238.104C170.762 236.86 171.473 235.168 171.481 233.4C175.215 235.64 179.828 236.42 184.368 235.2L197.248 231.753C199.362 231.187 201.344 230.21 203.081 228.877C204.818 227.545 206.275 225.884 207.369 223.988C208.464 222.092 209.174 220 209.46 217.83C209.746 215.659 209.601 213.454 209.035 211.34L203.855 192.02C202.71 187.751 199.916 184.112 196.087 181.903C192.259 179.694 187.71 179.096 183.441 180.24L170.561 183.687C166.599 184.742 163.168 187.226 160.928 190.66V190.667ZM55.5014 206.313C59.1026 197.604 64.9453 190.003 72.4358 184.283C79.9263 178.563 88.7975 174.928 98.148 173.747V201.14C95.1604 202.2 92.4666 203.953 90.2879 206.256C88.1092 208.558 86.5076 211.345 85.6147 214.387L55.5014 206.32V206.313ZM154.128 206.313C150.526 197.604 144.683 190.003 137.193 184.284C129.703 178.564 120.832 174.928 111.481 173.747V201.14C117.508 203.273 122.215 208.207 124.015 214.387L154.128 206.32V206.313ZM104.815 226.667C106.583 226.667 108.279 225.964 109.529 224.714C110.779 223.464 111.481 221.768 111.481 220C111.481 218.232 110.779 216.536 109.529 215.286C108.279 214.036 106.583 213.333 104.815 213.333C103.047 213.333 101.351 214.036 100.101 215.286C98.8504 216.536 98.148 218.232 98.148 220C98.148 221.768 98.8504 223.464 100.101 224.714C101.351 225.964 103.047 226.667 104.815 226.667Z" fill="white"/>
</svg>
