<svg width="210" height="241" viewBox="0 0 210 241" fill="none" xmlns="http://www.w3.org/2000/svg">
<path fill-rule="evenodd" clip-rule="evenodd" d="M44.8145 23.3333C44.8145 20.4133 74.9211 0 104.814 0C134.708 0 164.814 20.42 164.814 23.3333C164.814 33.7333 163.708 39.8933 162.774 43.2467C162.154 45.4467 160.094 46.6667 157.808 46.6667H51.8211C49.5345 46.6667 47.4745 45.4467 46.8545 43.2467C45.9211 39.8933 44.8145 33.7333 44.8145 23.3333ZM94.8145 20C93.0463 20 91.3506 20.7024 90.1004 21.9526C88.8502 23.2029 88.1478 24.8986 88.1478 26.6667C88.1478 28.4348 88.8502 30.1305 90.1004 31.3807C91.3506 32.631 93.0463 33.3333 94.8145 33.3333H114.814C116.583 33.3333 118.278 32.631 119.529 31.3807C120.779 30.1305 121.481 28.4348 121.481 26.6667C121.481 24.8986 120.779 23.2029 119.529 21.9526C118.278 20.7024 116.583 20 114.814 20H94.8145Z" fill="white"/>
<path d="M162.954 121.985C162.257 119.644 161.6 117.434 161.463 115.908C160.763 108.143 161.106 84.4832 161.108 84.2289C161.108 53.7752 135.968 29 105.067 29C74.1662 28.9976 49.0241 53.7728 49.0241 84.2704C49.0339 84.5101 49.8116 108.317 49.029 116.101C48.875 117.656 48.1169 119.921 47.3172 122.305C45.7912 126.871 44.209 131.598 45.4415 134.709C46.7156 137.91 52.8978 141.047 55.7101 141.62C67.0351 143.928 84.76 145.256 104.343 145.256C104.348 145.256 104.348 145.256 104.348 145.256C124.25 145.256 142.371 143.911 154.065 141.566C156.958 140.986 163.099 137.949 164.473 134.731C165.811 131.598 164.356 126.714 162.954 121.985ZM140.172 103.137C135.198 117.59 121.357 128.008 105.011 128.04C88.6508 128.008 74.7947 117.578 69.8279 103.096C69.7863 103.12 69.7447 103.125 69.7056 103.145C69.7007 103.13 69.6909 103.115 69.686 103.096C69.0502 103.401 68.3533 103.568 67.6172 103.58C64.6092 103.534 62.2053 100.755 62.2053 97.3147C62.2053 93.8836 64.6092 91.1007 67.6196 91.0567C67.6441 91.0591 67.6636 91.0615 67.6807 91.064C68.5195 92.4921 69.4757 93.8665 70.564 95.1797C69.7007 92.2231 69.1945 89.203 69.0551 86.173C71.8601 83.3338 74.3056 78.7705 75.6115 73.3293C76.1935 70.901 76.4918 68.5239 76.5432 66.2961C79.3799 70.5855 82.7376 74.8822 85.5621 76.3153C89.4602 78.2937 96.0533 79.2547 105.728 79.2547C116.705 79.2547 129.021 77.9586 135.55 77.1614C136.925 80.9103 138.832 84.0357 140.952 86.1804C140.808 89.1981 140.302 92.228 139.444 95.1797C140.527 93.8714 141.488 92.4946 142.324 91.0664C145.303 91.1545 147.668 93.9105 147.668 97.3195C147.668 100.751 145.266 103.534 142.256 103.582C141.574 103.57 140.923 103.421 140.321 103.142C140.317 103.159 140.312 103.174 140.307 103.189C140.258 103.169 140.211 103.162 140.172 103.137Z" fill="white"/>
<path d="M43.4532 54C34.9865 62.9867 29.3865 75.2533 51.5865 82.12V82.1133L64.7198 85.2333C74.4732 86.58 86.9732 87.3333 102.853 87.3333C120.467 87.3333 134.12 86.4 144.587 84.7733L157.667 81.3133C178.14 74.3267 174.506 62.6533 167.733 54H43.4532Z" fill="white"/>
<path fill-rule="evenodd" clip-rule="evenodd" d="M160.928 190.667C154.898 181.259 146.598 173.519 136.792 168.16C126.986 162.801 115.989 159.995 104.815 160C93.6353 159.993 82.634 162.799 72.8242 168.161C63.0145 173.522 54.7119 181.267 48.6814 190.68C46.4432 187.233 43.0059 184.739 39.0347 183.68L26.1547 180.233C21.8856 179.089 17.3367 179.687 13.5086 181.896C9.68041 184.105 6.88651 187.744 5.74136 192.013L0.56803 211.333C0.00144283 213.448 -0.143121 215.653 0.142595 217.823C0.428311 219.993 1.13871 222.086 2.23323 223.981C3.32774 225.877 4.78493 227.538 6.52158 228.871C8.25824 230.203 10.2403 231.18 12.3547 231.747L25.228 235.2C27.3934 235.783 29.6544 235.922 31.8749 235.608C34.0953 235.294 36.2292 234.534 38.148 233.373C38.1533 235.141 38.8608 236.835 40.1148 238.082C41.3688 239.328 43.0666 240.025 44.8347 240.02C46.6028 240.015 48.2964 239.307 49.5429 238.053C50.7894 236.799 51.4867 235.101 51.4814 233.333V226.667C51.4814 224.127 51.6614 221.627 52.0014 219.18L86.6947 228.48C88.3051 231.927 90.8653 234.843 94.0748 236.886C97.2844 238.929 101.01 240.014 104.815 240.014C108.619 240.014 112.345 238.929 115.555 236.886C118.764 234.843 121.324 231.927 122.935 228.48L157.628 219.18C157.968 221.627 158.148 224.127 158.148 226.667V233.333C158.139 235.101 158.833 236.801 160.077 238.057C161.321 239.314 163.013 240.025 164.781 240.033C166.549 240.042 168.249 239.348 169.505 238.104C170.762 236.86 171.473 235.168 171.481 233.4C175.215 235.64 179.828 236.42 184.368 235.2L197.248 231.753C199.362 231.187 201.344 230.21 203.081 228.877C204.818 227.545 206.275 225.884 207.369 223.988C208.464 222.092 209.174 220 209.46 217.83C209.746 215.659 209.601 213.454 209.035 211.34L203.855 192.02C202.71 187.751 199.916 184.112 196.087 181.903C192.259 179.694 187.71 179.096 183.441 180.24L170.561 183.687C166.599 184.742 163.168 187.226 160.928 190.66V190.667ZM55.5014 206.313C59.1026 197.604 64.9453 190.003 72.4358 184.283C79.9263 178.563 88.7975 174.928 98.148 173.747V201.14C95.1604 202.2 92.4666 203.953 90.2879 206.256C88.1092 208.558 86.5076 211.345 85.6147 214.387L55.5014 206.32V206.313ZM154.128 206.313C150.526 197.604 144.683 190.003 137.193 184.284C129.703 178.564 120.832 174.928 111.481 173.747V201.14C117.508 203.273 122.215 208.207 124.015 214.387L154.128 206.32V206.313ZM104.815 226.667C106.583 226.667 108.279 225.964 109.529 224.714C110.779 223.464 111.481 221.768 111.481 220C111.481 218.232 110.779 216.536 109.529 215.286C108.279 214.036 106.583 213.333 104.815 213.333C103.047 213.333 101.351 214.036 100.101 215.286C98.8504 216.536 98.148 218.232 98.148 220C98.148 221.768 98.8504 223.464 100.101 224.714C101.351 225.964 103.047 226.667 104.815 226.667Z" fill="white"/>
</svg>
