<svg width="24" height="24" viewBox="0 0 24 24" fill="none" xmlns="http://www.w3.org/2000/svg">
<path d="M22.3094 5.94981C22.3094 4.02372 19.7302 2.57153 16.3094 2.57153C12.8887 2.57153 10.3094 4.02372 10.3094 5.94981C10.3094 5.96692 10.3132 5.9831 10.3137 5.99997H10.3094V8.5713H12.0237V8.35895C13.0964 8.96388 14.5973 9.32763 16.3094 9.32763C17.8889 9.32763 19.2844 9.0152 20.3339 8.49231C20.4966 8.6606 20.5952 8.82794 20.5952 8.97466C20.5952 9.63677 18.8859 10.6383 16.3094 10.6383H14.5957V12.3525H16.3094C17.8891 12.3525 19.2851 12.04 20.3346 11.5169C20.4975 11.685 20.595 11.8523 20.595 11.9997C20.595 12.6623 18.8857 13.6638 16.3092 13.6638L15.7024 13.6666C15.3295 13.6699 14.9684 13.6734 14.6163 13.664L14.5744 15.3775C14.7628 15.3822 14.9536 15.3839 15.1481 15.3839C15.334 15.3839 15.5231 15.3827 15.7153 15.3811L16.3092 15.3783C17.8898 15.3783 19.2862 15.0654 20.336 14.5418C20.4994 14.7112 20.5948 14.8795 20.5948 15.025C20.5948 15.6876 18.8855 16.6891 16.309 16.6891H14.5952V18.4033H16.309C17.8896 18.4033 19.2858 18.0904 20.3358 17.5668C20.4994 17.7361 20.5948 17.9043 20.5948 18.0501C20.5948 18.7127 18.8855 19.7142 16.309 19.7142H14.5952V21.4284H16.309C19.7297 21.4284 22.309 19.9762 22.309 18.0501C22.309 18.0342 22.3069 18.0161 22.3064 18H22.309V5.99997H22.3048C22.3055 5.9831 22.3094 5.96669 22.3094 5.94981ZM12.0237 5.94981C12.0237 5.28724 13.733 4.28575 16.3094 4.28575C18.8859 4.28575 20.5952 5.28724 20.5952 5.94981C20.5952 6.61192 18.8859 7.61341 16.3094 7.61341C13.733 7.61341 12.0237 6.61192 12.0237 5.94981Z" fill="white"/>
<path d="M7.73792 8.57129C4.31721 8.57129 1.73792 10.0235 1.73792 11.9496C1.73792 11.9667 1.74167 11.9829 1.74213 11.9997H1.73792V17.9997C1.73792 19.9258 4.31721 21.378 7.73792 21.378C11.1586 21.378 13.7379 19.9258 13.7379 17.9997V12H13.7337C13.7342 11.9831 13.7379 11.9667 13.7379 11.9498C13.7379 10.0237 11.1586 8.57129 7.73792 8.57129ZM3.45213 14.9749C3.45213 14.8268 3.54893 14.6596 3.71182 14.4916C4.76159 15.015 6.15776 15.3276 7.73792 15.3276C9.31737 15.3276 10.7128 15.0152 11.7624 14.4923C11.925 14.6606 12.0237 14.8279 12.0237 14.9746C12.0237 15.6368 10.3144 16.6382 7.73792 16.6382C5.16143 16.6382 3.45213 15.637 3.45213 14.9749ZM7.73792 10.2857C10.3144 10.2857 12.0237 11.2872 12.0237 11.9498C12.0237 12.6119 10.3144 13.6134 7.73792 13.6134C5.16143 13.6134 3.45213 12.6119 3.45213 11.9498C3.45213 11.2872 5.16143 10.2857 7.73792 10.2857ZM7.73792 19.664C5.16143 19.664 3.45213 18.6625 3.45213 18C3.45213 17.8525 3.54987 17.6852 3.71252 17.5171C4.76229 18.0403 6.15799 18.3529 7.73792 18.3529C9.3176 18.3529 10.7135 18.0405 11.7631 17.5174C11.926 17.6854 12.0235 17.8528 12.0235 18.0002C12.0237 18.6625 10.3144 19.664 7.73792 19.664Z" fill="white"/>
</svg>
